<svg width="1440" height="61" viewBox="0 0 1440 61" fill="none" xmlns="http://www.w3.org/2000/svg">
<rect y="23.5178" width="1440" height="37" fill="#2E1911"/>
<path fill-rule="evenodd" clip-rule="evenodd" d="M-0.000854492 9.77525V60L62.0427 50.5846C122.087 43.5505 274.911 29.4824 394.999 24.8004C407.041 24.3221 419.082 23.9182 431.121 23.5892C402.745 21.0285 374.869 17.4853 346.883 13.9282C303.949 8.47109 260.755 2.98099 215.096 0.954433C135.256 -2.45877 55.4166 3.93957 -0.000854492 9.77525ZM591.042 23.6415C618.595 21.4283 646.54 18.4975 674.454 15.5699C726.508 10.1106 778.453 4.66269 827.548 3.90069C891.758 2.97403 955.968 7.75713 1020.18 12.5402C1058.04 15.3609 1095.91 18.1815 1133.77 19.8312C1235.85 24.2784 1337.92 20.2163 1388.96 15.7691L1440 11.3219V26.0594L1383.02 29.4824C1322.97 36.5165 1202.88 50.5846 1082.8 51.7496C997.496 52.6395 928.711 46.9085 852.98 40.5986C822.095 38.0252 790.053 35.3555 755.265 32.9995C700.467 28.2914 645.743 25.1813 591.042 23.6415Z" fill="#DBBD52"/>
</svg>
