<svg width="1440" height="77" viewBox="0 0 1440 77" fill="none" xmlns="http://www.w3.org/2000/svg">
<g clip-path="url(#clip0_236_2762)">
<path d="M0 46.2L60 38.5C120 30.8 240 15.4 360 14.1247C480 12.7531 600 25.7469 720 34.65C840 43.5531 960 48.8469 1080 43.6253C1200 38.5 1320 23.1 1380 15.4L1440 7.70001V77H1380C1320 77 1200 77 1080 77C960 77 840 77 720 77C600 77 480 77 360 77C240 77 120 77 60 77L0 77L0 46.2Z" fill="#FDF6DB"/>
<path fill-rule="evenodd" clip-rule="evenodd" d="M1440 7.70001L1380 15.4C1357.55 18.2807 1326.71 22.239 1290.61 26.3338C1332.35 28.5192 1368.12 31.7762 1392 33.951L1440 38.3219V7.70001ZM66.5898 37.6551C118.297 43.7791 203.149 52.3023 288.001 48.5115C330.156 46.5562 372.311 41.5615 414.467 36.5668C468.311 30.1871 522.156 23.8074 576.001 23.7615C578.721 23.7638 581.442 23.7823 584.162 23.8161C509.442 17.9863 434.721 13.2707 360.001 14.1247C244.245 15.3549 128.489 29.7283 66.5898 37.6551ZM734.052 35.6756C777.368 40.412 820.685 44.9132 864.001 45.6158C880.705 45.8677 897.408 45.5465 914.112 44.8209C854.092 43.3189 794.072 39.9825 734.052 35.6756Z" fill="#DBBD52"/>
</g>
<defs>
<clipPath id="clip0_236_2762">
<rect width="1440" height="77" fill="white"/>
</clipPath>
</defs>
</svg>
