<svg width="1440" height="196" viewBox="0 0 1440 196" fill="none" xmlns="http://www.w3.org/2000/svg">
<rect width="1440" height="182" fill="#FDF6DB"/>
<path d="M0 84.5654L48 70.9288C96 57.0361 192 30.147 288 40.1984C384 50.6339 480 98.0099 576 98.202C672 98.0099 768 50.6339 864 46.9847C960 43.5916 1056 84.5654 1152 94.8089C1248 105.052 1344 84.5654 1392 74.3219L1440 64.0785V187H1392C1344 187 1248 187 1152 187C1056 187 960 187 864 187C768 187 672 187 576 187C480 187 384 187 288 187C192 187 96 187 48 187H0V84.5654Z" fill="#DBBD52"/>
<path d="M1440 97.702L1392 89.5499C1344 81.7026 1248 64.9413 1152 65.1698C1056 64.9413 960 81.7026 864 89.5499C768 97.702 672 97.702 576 81.474C480 64.9413 384 32.9424 288 16.4096C192 0.181644 96 0.181641 48 0.181641H0V195.222H48C96 195.222 192 195.222 288 195.222C384 195.222 480 195.222 576 195.222C672 195.222 768 195.222 864 195.222C960 195.222 1056 195.222 1152 195.222C1248 195.222 1344 195.222 1392 195.222H1440V97.702Z" fill="#27150F"/>
</svg>
