<svg width="24" height="25" viewBox="0 0 24 25" fill="none" xmlns="http://www.w3.org/2000/svg">
<g clip-path="url(#clip0_239_2679)">
<path fill-rule="evenodd" clip-rule="evenodd" d="M16.8416 6.88656C15.6026 5.70486 13.9491 5.06109 12.2383 5.08755C9.10766 5.08755 6.44884 7.1996 5.50082 10.0436V10.0437C4.99816 11.534 4.99816 13.1478 5.50082 14.6382H5.50522C6.45763 17.4778 9.11205 19.5899 12.2427 19.5899C13.8587 19.5899 15.2461 19.1765 16.3213 18.4464V18.4435C17.5868 17.6057 18.451 16.2873 18.72 14.7969H12.2383V10.176H23.5571C23.6982 10.9785 23.7643 11.7986 23.7643 12.6143C23.7643 16.2642 22.4599 19.35 20.1903 21.44L20.1927 21.4418C18.2041 23.2761 15.4747 24.3387 12.2383 24.3387C7.70107 24.3387 3.55188 21.7813 1.51477 17.7291V17.7291C-0.187219 14.3383 -0.187215 10.3435 1.51478 6.95273H1.51481L1.51477 6.9527C3.55188 2.89611 7.70107 0.338699 12.2383 0.338699C15.219 0.303425 18.0983 1.4234 20.2677 3.46051L16.8416 6.88656Z" fill="white"/>
</g>
<defs>
<clipPath id="clip0_239_2679">
<rect width="24" height="24" fill="white" transform="translate(0 0.337891)"/>
</clipPath>
</defs>
</svg>
