<svg width="24" height="25" viewBox="0 0 24 25" fill="none" xmlns="http://www.w3.org/2000/svg">
<path d="M12 2.49883C15.2063 2.49883 15.5859 2.51289 16.8469 2.56914C18.0188 2.6207 18.6516 2.81758 19.0734 2.98164C19.6313 3.19727 20.0344 3.45977 20.4516 3.87695C20.8734 4.29883 21.1313 4.69727 21.3469 5.25508C21.5109 5.67695 21.7078 6.31445 21.7594 7.48164C21.8156 8.74726 21.8297 9.12695 21.8297 12.3285C21.8297 15.5348 21.8156 15.9145 21.7594 17.1754C21.7078 18.3473 21.5109 18.9801 21.3469 19.402C21.1313 19.9598 20.8687 20.3629 20.4516 20.7801C20.0297 21.202 19.6313 21.4598 19.0734 21.6754C18.6516 21.8395 18.0141 22.0363 16.8469 22.0879C15.5813 22.1441 15.2016 22.1582 12 22.1582C8.79375 22.1582 8.41406 22.1441 7.15313 22.0879C5.98125 22.0363 5.34844 21.8395 4.92656 21.6754C4.36875 21.4598 3.96563 21.1973 3.54844 20.7801C3.12656 20.3582 2.86875 19.9598 2.65313 19.402C2.48906 18.9801 2.29219 18.3426 2.24063 17.1754C2.18438 15.9098 2.17031 15.5301 2.17031 12.3285C2.17031 9.12227 2.18438 8.74258 2.24063 7.48164C2.29219 6.30977 2.48906 5.67695 2.65313 5.25508C2.86875 4.69727 3.13125 4.29414 3.54844 3.87695C3.97031 3.45508 4.36875 3.19727 4.92656 2.98164C5.34844 2.81758 5.98594 2.6207 7.15313 2.56914C8.41406 2.51289 8.79375 2.49883 12 2.49883ZM12 0.337891C8.74219 0.337891 8.33438 0.351953 7.05469 0.408203C5.77969 0.464453 4.90313 0.670703 4.14375 0.966016C3.35156 1.27539 2.68125 1.6832 2.01563 2.35352C1.34531 3.01914 0.9375 3.68945 0.628125 4.47695C0.332812 5.24102 0.126563 6.11289 0.0703125 7.38789C0.0140625 8.67227 0 9.08008 0 12.3379C0 15.5957 0.0140625 16.0035 0.0703125 17.2832C0.126563 18.5582 0.332812 19.4348 0.628125 20.1941C0.9375 20.9863 1.34531 21.6566 2.01563 22.3223C2.68125 22.9879 3.35156 23.4004 4.13906 23.7051C4.90313 24.0004 5.775 24.2066 7.05 24.2629C8.32969 24.3191 8.7375 24.3332 11.9953 24.3332C15.2531 24.3332 15.6609 24.3191 16.9406 24.2629C18.2156 24.2066 19.0922 24.0004 19.8516 23.7051C20.6391 23.4004 21.3094 22.9879 21.975 22.3223C22.6406 21.6566 23.0531 20.9863 23.3578 20.1988C23.6531 19.4348 23.8594 18.5629 23.9156 17.2879C23.9719 16.0082 23.9859 15.6004 23.9859 12.3426C23.9859 9.08477 23.9719 8.67695 23.9156 7.39727C23.8594 6.12227 23.6531 5.2457 23.3578 4.48633C23.0625 3.68945 22.6547 3.01914 21.9844 2.35352C21.3188 1.68789 20.6484 1.27539 19.8609 0.970703C19.0969 0.675391 18.225 0.469141 16.95 0.412891C15.6656 0.351953 15.2578 0.337891 12 0.337891Z" fill="white"/>
<path d="M12 6.17383C8.59688 6.17383 5.83594 8.93477 5.83594 12.3379C5.83594 15.741 8.59688 18.502 12 18.502C15.4031 18.502 18.1641 15.741 18.1641 12.3379C18.1641 8.93477 15.4031 6.17383 12 6.17383ZM12 16.3363C9.79219 16.3363 8.00156 14.5457 8.00156 12.3379C8.00156 10.1301 9.79219 8.33945 12 8.33945C14.2078 8.33945 15.9984 10.1301 15.9984 12.3379C15.9984 14.5457 14.2078 16.3363 12 16.3363Z" fill="white"/>
<path d="M19.8469 5.9293C19.8469 6.72617 19.2 7.36836 18.4078 7.36836C17.6109 7.36836 16.9688 6.72149 16.9688 5.9293C16.9688 5.13242 17.6156 4.49023 18.4078 4.49023C19.2 4.49023 19.8469 5.13711 19.8469 5.9293Z" fill="white"/>
</svg>
