<svg width="24" height="25" viewBox="0 0 24 25" fill="none" xmlns="http://www.w3.org/2000/svg">
<path d="M22.2234 0.337891H1.77187C0.792187 0.337891 0 1.11133 0 2.06758V22.6035C0 23.5598 0.792187 24.3379 1.77187 24.3379H22.2234C23.2031 24.3379 24 23.5598 24 22.6082V2.06758C24 1.11133 23.2031 0.337891 22.2234 0.337891ZM7.12031 20.7895H3.55781V9.3332H7.12031V20.7895ZM5.33906 7.77227C4.19531 7.77227 3.27188 6.84883 3.27188 5.70977C3.27188 4.5707 4.19531 3.64727 5.33906 3.64727C6.47813 3.64727 7.40156 4.5707 7.40156 5.70977C7.40156 6.84414 6.47813 7.77227 5.33906 7.77227ZM20.4516 20.7895H16.8937V15.2207C16.8937 13.8941 16.8703 12.1832 15.0422 12.1832C13.1906 12.1832 12.9094 13.6316 12.9094 15.127V20.7895H9.35625V9.3332H12.7687V10.8988H12.8156C13.2891 9.99883 14.4516 9.04727 16.1813 9.04727C19.7859 9.04727 20.4516 11.4191 20.4516 14.5035V20.7895Z" fill="white"/>
</svg>
