<svg width="24" height="25" viewBox="0 0 24 25" fill="none" xmlns="http://www.w3.org/2000/svg">
<path d="M19.3547 4.88945C17.3906 2.9207 14.775 1.83789 11.9953 1.83789C6.25781 1.83789 1.58906 6.50664 1.58906 12.2441C1.58906 14.077 2.06719 15.8676 2.97656 17.4473L1.5 22.8379L7.01719 21.3895C8.53594 22.2191 10.2469 22.6551 11.9906 22.6551H11.9953C17.7281 22.6551 22.5 17.9863 22.5 12.2488C22.5 9.46914 21.3188 6.8582 19.3547 4.88945ZM11.9953 20.902C10.4391 20.902 8.91562 20.4848 7.58906 19.6973L7.275 19.5098L4.00313 20.3676L4.875 17.1754L4.66875 16.8473C3.80156 15.4691 3.34688 13.8801 3.34688 12.2441C3.34688 7.47695 7.22812 3.5957 12 3.5957C14.3109 3.5957 16.4812 4.4957 18.1125 6.13164C19.7437 7.76758 20.7469 9.93789 20.7422 12.2488C20.7422 17.0207 16.7625 20.902 11.9953 20.902ZM16.7391 14.4238C16.4813 14.2926 15.2016 13.6645 14.9625 13.5801C14.7234 13.491 14.55 13.4488 14.3766 13.7113C14.2031 13.9738 13.7063 14.5551 13.5516 14.7332C13.4016 14.9066 13.2469 14.9301 12.9891 14.7988C11.4609 14.0348 10.4578 13.4348 9.45 11.7051C9.18281 11.2457 9.71719 11.2785 10.2141 10.2848C10.2984 10.1113 10.2562 9.96133 10.1906 9.83008C10.125 9.69883 9.60469 8.41914 9.38906 7.89883C9.17813 7.39258 8.9625 7.46289 8.80313 7.45352C8.65313 7.44414 8.47969 7.44414 8.30625 7.44414C8.13281 7.44414 7.85156 7.50977 7.6125 7.76758C7.37344 8.03008 6.70312 8.6582 6.70312 9.93789C6.70312 11.2176 7.63594 12.4551 7.7625 12.6285C7.89375 12.802 9.59531 15.427 12.2062 16.5566C13.8562 17.2691 14.5031 17.3301 15.3281 17.2082C15.8297 17.1332 16.8656 16.5801 17.0812 15.9707C17.2969 15.3613 17.2969 14.841 17.2313 14.7332C17.1703 14.616 16.9969 14.5504 16.7391 14.4238Z" fill="white"/>
</svg>
